<svg width="17" height="17" viewBox="0 0 17 17" fill="none" xmlns="http://www.w3.org/2000/svg">
<path d="M8.5921 0.599609C4.1761 0.599609 0.600098 4.18361 0.600098 8.59961C0.600098 13.0156 4.1761 16.5996 8.5921 16.5996C13.0161 16.5996 16.6001 13.0156 16.6001 8.59961C16.6001 4.18361 13.0161 0.599609 8.5921 0.599609ZM8.6001 14.9996C5.0641 14.9996 2.2001 12.1356 2.2001 8.59961C2.2001 5.06361 5.0641 2.19961 8.6001 2.19961C12.1361 2.19961 15.0001 5.06361 15.0001 8.59961C15.0001 12.1356 12.1361 14.9996 8.6001 14.9996ZM8.6001 10.1996C6.7361 10.1996 5.1441 11.3596 4.5041 12.9996H5.8401C6.3921 12.0476 7.4161 11.3996 8.6001 11.3996C9.7841 11.3996 10.8001 12.0476 11.3601 12.9996H12.6961C12.0561 11.3596 10.4641 10.1996 8.6001 10.1996Z" fill="#402718"/>
</svg>
