<svg width="60" height="60" viewBox="0 0 60 60" fill="none" xmlns="http://www.w3.org/2000/svg">
<path d="M43.3876 17.1085L24.1668 36.3293L13.696 25.8877L9.58349 30.0002L24.1668 44.5835L47.5001 21.2502L43.3876 17.1085ZM30.0002 0.833496C13.9002 0.833496 0.833496 13.9002 0.833496 30.0002C0.833496 46.1001 13.9002 59.1668 30.0002 59.1668C46.1001 59.1668 59.1668 46.1001 59.1668 30.0002C59.1668 13.9002 46.1001 0.833496 30.0002 0.833496ZM30.0002 53.3335C17.1085 53.3335 6.66683 42.8918 6.66683 30.0002C6.66683 17.1085 17.1085 6.66683 30.0002 6.66683C42.8918 6.66683 53.3335 17.1085 53.3335 30.0002C53.3335 42.8918 42.8918 53.3335 30.0002 53.3335Z" fill="#402718"/>
</svg>
