<svg width="70" height="70" viewBox="0 0 70 70" fill="none" xmlns="http://www.w3.org/2000/svg">
<path d="M48.3876 22.1085L29.1668 41.3293L18.696 30.8877L14.5835 35.0002L29.1668 49.5835L52.5001 26.2502L48.3876 22.1085ZM35.0002 5.8335C18.9002 5.8335 5.8335 18.9002 5.8335 35.0002C5.8335 51.1001 18.9002 64.1668 35.0002 64.1668C51.1001 64.1668 64.1668 51.1001 64.1668 35.0002C64.1668 18.9002 51.1001 5.8335 35.0002 5.8335ZM35.0002 58.3335C22.1085 58.3335 11.6668 47.8918 11.6668 35.0002C11.6668 22.1085 22.1085 11.6668 35.0002 11.6668C47.8918 11.6668 58.3335 22.1085 58.3335 35.0002C58.3335 47.8918 47.8918 58.3335 35.0002 58.3335Z" fill="#3C763D"/>
</svg>
