<svg width="17" height="15" viewBox="0 0 17 15" fill="none" xmlns="http://www.w3.org/2000/svg">
<path fill-rule="evenodd" clip-rule="evenodd" d="M15.3785 0.400391H2.57852C1.69852 0.400391 0.978516 1.12039 0.978516 2.00039V13.2004C0.978516 14.0804 1.69852 14.8004 2.57852 14.8004H15.3785C16.2585 14.8004 16.9785 14.0804 16.9785 13.2004V2.00039C16.9785 1.12039 16.2585 0.400391 15.3785 0.400391ZM7.37852 11.6004H3.37852V10.0004H7.37852V11.6004ZM7.37852 8.40039H3.37852V6.80039H7.37852V8.40039ZM7.37852 5.20039H3.37852V3.60039H7.37852V5.20039ZM11.2345 10.0004L8.97852 7.72839L10.1065 6.60039L11.2345 7.73639L13.7705 5.20039L14.9065 6.33639L11.2345 10.0004Z" fill="#402718"/>
</svg>
