<svg width="26" height="33" viewBox="0 0 26 33" fill="none" xmlns="http://www.w3.org/2000/svg">
<path d="M22.523 7.18513H19.3215C19.3215 3.64753 16.4562 0.782227 12.9186 0.782227C9.381 0.782227 6.5157 3.64753 6.5157 7.18513H3.31425C1.55345 7.18513 0.112793 8.62579 0.112793 10.3866V29.5953C0.112793 31.3561 1.55345 32.7968 3.31425 32.7968H22.523C24.2838 32.7968 25.7244 31.3561 25.7244 29.5953V10.3866C25.7244 8.62579 24.2838 7.18513 22.523 7.18513ZM9.71715 13.588C9.71715 14.4684 8.99682 15.1888 8.11642 15.1888C7.23603 15.1888 6.5157 14.4684 6.5157 13.588V10.3866H9.71715V13.588ZM12.9186 3.98368C14.6794 3.98368 16.1201 5.42433 16.1201 7.18513H9.71715C9.71715 5.42433 11.1578 3.98368 12.9186 3.98368ZM19.3215 13.588C19.3215 14.4684 18.6012 15.1888 17.7208 15.1888C16.8404 15.1888 16.1201 14.4684 16.1201 13.588V10.3866H19.3215V13.588Z" fill="#402718"/>
</svg>
