<svg width="16" height="16" viewBox="0 0 16 16" fill="none" xmlns="http://www.w3.org/2000/svg">
<path d="M1.6 3.19902H0V14.399C0 15.279 0.72 15.999 1.6 15.999H12.8V14.399H1.6V3.19902ZM14.4 -0.000976562H4.8C3.92 -0.000976562 3.2 0.719023 3.2 1.59902V11.199C3.2 12.079 3.92 12.799 4.8 12.799H14.4C15.28 12.799 16 12.079 16 11.199V1.59902C16 0.719023 15.28 -0.000976562 14.4 -0.000976562ZM13.6 7.19902H5.6V5.59902H13.6V7.19902ZM10.4 10.399H5.6V8.79902H10.4V10.399ZM13.6 3.99902H5.6V2.39902H13.6V3.99902Z" fill="#402718"/>
</svg>
