<svg width="36" height="25" viewBox="0 0 36 25" fill="none" xmlns="http://www.w3.org/2000/svg">
<path d="M17.8834 0.78418C9.87975 0.78418 3.04465 5.76244 0.275391 12.7896C3.04465 19.8168 9.87975 24.7951 17.8834 24.7951C25.887 24.7951 32.7221 19.8168 35.4914 12.7896C32.7221 5.76244 25.887 0.78418 17.8834 0.78418ZM17.8834 20.7933C13.4654 20.7933 9.87975 17.2076 9.87975 12.7896C9.87975 8.37162 13.4654 4.786 17.8834 4.786C22.3014 4.786 25.887 8.37162 25.887 12.7896C25.887 17.2076 22.3014 20.7933 17.8834 20.7933ZM17.8834 7.98745C15.2262 7.98745 13.0812 10.1324 13.0812 12.7896C13.0812 15.4468 15.2262 17.5918 17.8834 17.5918C20.5406 17.5918 22.6856 15.4468 22.6856 12.7896C22.6856 10.1324 20.5406 7.98745 17.8834 7.98745Z" fill="#402718"/>
</svg>
