<svg width="17" height="17" viewBox="0 0 17 17" fill="none" xmlns="http://www.w3.org/2000/svg">
<path d="M8.6001 0.599609C4.1841 0.599609 0.600098 4.18361 0.600098 8.59961C0.600098 13.0156 4.1841 16.5996 8.6001 16.5996C13.0161 16.5996 16.6001 13.0156 16.6001 8.59961C16.6001 4.18361 13.0161 0.599609 8.6001 0.599609ZM8.6001 14.9996C5.0641 14.9996 2.2001 12.1356 2.2001 8.59961C2.2001 7.11961 2.7041 5.75961 3.5521 4.67961L12.5201 13.6476C11.4027 14.5263 10.0216 15.0026 8.6001 14.9996ZM13.6481 12.5196L4.6801 3.55161C5.79753 2.67291 7.17857 2.1966 8.6001 2.19961C12.1361 2.19961 15.0001 5.06361 15.0001 8.59961C15.0001 10.0796 14.4961 11.4396 13.6481 12.5196Z" fill="#402718"/>
</svg>
