<svg width="24" height="24" viewBox="0 0 24 24" fill="none" xmlns="http://www.w3.org/2000/svg">
<path d="M13.25 0.75H10.75V13.25H13.25V0.75ZM19.2875 3.4625L17.5125 5.2375C18.5249 6.04961 19.3416 7.07912 19.902 8.24975C20.4624 9.42039 20.7523 10.7021 20.75 12C20.75 16.8375 16.8375 20.75 12 20.75C10.194 20.7511 8.43203 20.1929 6.95607 19.1522C5.48011 18.1115 4.36262 16.6393 3.75711 14.9378C3.15161 13.2364 3.0878 11.3892 3.57447 9.65005C4.06113 7.91088 5.07437 6.36508 6.475 5.225L4.7125 3.4625C3.47014 4.51115 2.47184 5.81851 1.78741 7.29318C1.10297 8.76785 0.748915 10.3742 0.750002 12C0.750003 14.9837 1.93527 17.8452 4.04505 19.955C6.15484 22.0647 9.01632 23.25 12 23.25C14.9837 23.25 17.8452 22.0647 19.955 19.955C22.0647 17.8452 23.25 14.9837 23.25 12C23.25 8.575 21.7125 5.525 19.2875 3.4625Z" fill="#402718"/>
</svg>
