<svg width="18" height="30" viewBox="0 0 18 30" fill="none" xmlns="http://www.w3.org/2000/svg">
<path d="M9.56349 13.0286C5.92984 12.0841 4.76131 11.1077 4.76131 9.58699C4.76131 7.8422 6.37804 6.62565 9.08327 6.62565C11.9326 6.62565 12.989 7.98626 13.0851 9.98717H16.6227C16.5106 7.23392 14.8299 4.70477 11.4844 3.8884V0.382812H6.68218V3.84038C3.57677 4.51269 1.07963 6.5296 1.07963 9.61901C1.07963 13.3167 4.13702 15.1575 8.60305 16.23C12.6049 17.1904 13.4052 18.5991 13.4052 20.0878C13.4052 21.1923 12.6209 22.9531 9.08327 22.9531C5.78577 22.9531 4.48918 21.4804 4.3131 19.5915H0.791504C0.983591 23.0971 3.60878 25.066 6.68218 25.7223V29.1959H11.4844V25.7543C14.6058 25.1621 17.0869 23.3532 17.0869 20.0717C17.0869 15.5257 13.1971 13.973 9.56349 13.0286Z" fill="#402718"/>
</svg>
